<?xml version="1.0" encoding="UTF-8" standalone="no"?>
<svg viewBox="0 0 50 50"
 xmlns="http://www.w3.org/2000/svg" xmlns:xlink="http://www.w3.org/1999/xlink" version="1.2" baseProfile="tiny">
<title>Qt SVG Document</title>
<desc>Generated with Qt</desc>
<defs>
</defs>
<g fill="none" stroke="black" stroke-width="1" fill-rule="evenodd" stroke-linecap="square" stroke-linejoin="bevel" >

<g fill="#303030" fill-opacity="1" stroke="none" transform="matrix(2.27273,0,0,2.27273,-71.0013,-2530.15)"
font-family="Noto Sans" font-size="10" font-weight="400" font-style="normal" 
>
<rect x="37.2406" y="1131.27" width="13" height="1"/>
</g>

<g fill="#303030" fill-opacity="1" stroke="none" transform="matrix(0,2.27273,-2.27273,0,-71.0013,-2530.15)"
font-family="Noto Sans" font-size="10" font-weight="400" font-style="normal" 
>
<rect x="1118.27" y="-50.2406" width="13" height="1"/>
</g>

<g fill="#8e8771" fill-opacity="1" stroke="none" transform="matrix(2.27273,0,0,2.27273,-71.0013,-2530.15)"
font-family="Noto Sans" font-size="10" font-weight="400" font-style="normal" 
>
<rect x="31.2406" y="1113.27" width="22" height="22"/>
</g>

<g fill="#e7e7df" fill-opacity="1" stroke="none" transform="matrix(2.27273,0,0,2.27273,-71.0013,-2530.15)"
font-family="Noto Sans" font-size="10" font-weight="400" font-style="normal" 
>
<rect x="32.2406" y="1134.27" width="21" height="1"/>
</g>

<g fill="#36342a" fill-opacity="1" stroke="none" transform="matrix(2.27273,0,0,2.27273,-71.0013,-2530.15)"
font-family="Noto Sans" font-size="10" font-weight="400" font-style="normal" 
>
<rect x="31.2406" y="1113.27" width="22" height="1"/>
</g>

<g fill="#36342a" fill-opacity="1" stroke="none" transform="matrix(2.27273,0,0,2.27273,-71.0013,-2530.15)"
font-family="Noto Sans" font-size="10" font-weight="400" font-style="normal" 
>
<rect x="31.2406" y="1114.27" width="1" height="21"/>
</g>

<g fill="#e7e7df" fill-opacity="1" stroke="none" transform="matrix(2.27273,0,0,2.27273,-71.0013,-2530.15)"
font-family="Noto Sans" font-size="10" font-weight="400" font-style="normal" 
>
<rect x="52.2406" y="1114.27" width="1" height="20"/>
</g>

<g fill="#676652" fill-opacity="1" stroke="none" transform="matrix(2.27273,0,0,2.27273,-71.0013,-2530.15)"
font-family="Noto Sans" font-size="10" font-weight="400" font-style="normal" 
>
<rect x="32.2406" y="1114.27" width="1" height="20"/>
</g>

<g fill="#676652" fill-opacity="1" stroke="none" transform="matrix(2.27273,0,0,2.27273,-71.0013,-2530.15)"
font-family="Noto Sans" font-size="10" font-weight="400" font-style="normal" 
>
<rect x="33.2406" y="1114.27" width="19" height="1"/>
</g>

<g fill="#676652" fill-opacity="1" stroke="none" transform="matrix(2.27273,0,0,2.27273,-71.0013,-2530.15)"
font-family="Noto Sans" font-size="10" font-weight="400" font-style="normal" 
>
<rect x="36.2406" y="1121.27" width="9" height="9"/>
</g>

<g fill="#676652" fill-opacity="1" stroke="none" transform="matrix(2.27273,0,0,2.27273,-71.0013,-2530.15)"
font-family="Noto Sans" font-size="10" font-weight="400" font-style="normal" 
>
<rect x="40.2406" y="1117.27" width="8" height="5"/>
</g>

<g fill="none" stroke="#000000" stroke-opacity="1" stroke-width="1" stroke-linecap="square" stroke-linejoin="bevel" transform="matrix(1,0,0,1,0,0)"
font-family="Noto Sans" font-size="10" font-weight="400" font-style="normal" 
>
</g>
</g>
</svg>
