<?xml version="1.0" encoding="UTF-8" standalone="no"?>
<svg viewBox="0 0 50 50"
 xmlns="http://www.w3.org/2000/svg" xmlns:xlink="http://www.w3.org/1999/xlink" version="1.2" baseProfile="tiny">
<title>Qt SVG Document</title>
<desc>Generated with Qt</desc>
<defs>
</defs>
<g fill="none" stroke="black" stroke-width="1" fill-rule="evenodd" stroke-linecap="square" stroke-linejoin="bevel" >

<g fill="#a19a7a" fill-opacity="1" stroke="none" transform="matrix(2.27273,0,0,2.27273,-71.002,-2446.06)"
font-family="Noto Sans" font-size="10" font-weight="400" font-style="normal" 
>
<rect x="31.2409" y="1076.27" width="22" height="22"/>
</g>

<g fill="#d3d0c0" fill-opacity="1" stroke="none" transform="matrix(2.27273,0,0,2.27273,-71.002,-2446.06)"
font-family="Noto Sans" font-size="10" font-weight="400" font-style="normal" 
>
<rect x="32.2409" y="1097.27" width="21" height="1"/>
</g>

<g fill="#5b5746" fill-opacity="1" stroke="none" transform="matrix(2.27273,0,0,2.27273,-71.002,-2446.06)"
font-family="Noto Sans" font-size="10" font-weight="400" font-style="normal" 
>
<rect x="31.2409" y="1076.27" width="22" height="1"/>
</g>

<g fill="#5b5746" fill-opacity="1" stroke="none" transform="matrix(2.27273,0,0,2.27273,-71.002,-2446.06)"
font-family="Noto Sans" font-size="10" font-weight="400" font-style="normal" 
>
<rect x="31.2409" y="1077.27" width="1" height="21"/>
</g>

<g fill="#d3d0c0" fill-opacity="1" stroke="none" transform="matrix(2.27273,0,0,2.27273,-71.002,-2446.06)"
font-family="Noto Sans" font-size="10" font-weight="400" font-style="normal" 
>
<rect x="52.2409" y="1077.27" width="1" height="20"/>
</g>

<g fill="#303030" fill-opacity="1" stroke="none" transform="matrix(2.27273,0,0,2.27273,-71.002,-2446.06)"
font-family="Noto Sans" font-size="10" font-weight="400" font-style="normal" 
>
<rect x="37.2409" y="1094.27" width="10" height="1"/>
</g>

<g fill="#303030" fill-opacity="1" stroke="none" transform="matrix(0,2.27273,-2.27273,0,-71.002,-2446.06)"
font-family="Noto Sans" font-size="10" font-weight="400" font-style="normal" 
>
<rect x="1086.27" y="-47.2409" width="8.00001" height="1"/>
</g>

<g fill="#000000" fill-opacity="1" stroke="none" transform="matrix(2.27273,0,0,2.27273,-71.002,-2446.06)"
font-family="Noto Sans" font-size="10" font-weight="400" font-style="normal" 
>
<rect x="35.2409" y="1083.27" width="11" height="1"/>
</g>

<g fill="#000000" fill-opacity="1" stroke="none" transform="matrix(2.27273,0,0,2.27273,-71.002,-2446.06)"
font-family="Noto Sans" font-size="10" font-weight="400" font-style="normal" 
>
<rect x="35.2409" y="1084.27" width="1" height="9.28572"/>
</g>

<g fill="#000000" fill-opacity="1" stroke="none" transform="matrix(2.27273,0,0,2.27273,-71.002,-2446.06)"
font-family="Noto Sans" font-size="10" font-weight="400" font-style="normal" 
>
<rect x="35.2409" y="1093.27" width="10" height="1"/>
</g>

<g fill="#000000" fill-opacity="1" stroke="none" transform="matrix(2.27273,0,0,2.27273,-71.002,-2446.06)"
font-family="Noto Sans" font-size="10" font-weight="400" font-style="normal" 
>
<rect x="45.2409" y="1084.27" width="1" height="10"/>
</g>

<g fill="#000000" fill-opacity="1" stroke="none" transform="matrix(2.27273,0,0,2.27273,-71.002,-2446.06)"
font-family="Noto Sans" font-size="10" font-weight="400" font-style="normal" 
>
<rect x="40.2409" y="1079.27" width="1" height="3.99997"/>
</g>

<g fill="#000000" fill-opacity="1" stroke="none" transform="matrix(2.27273,0,0,2.27273,-71.002,-2446.06)"
font-family="Noto Sans" font-size="10" font-weight="400" font-style="normal" 
>
<rect x="41.2409" y="1079.27" width="8" height="1"/>
</g>

<g fill="#000000" fill-opacity="1" stroke="none" transform="matrix(2.27273,0,0,2.27273,-71.002,-2446.06)"
font-family="Noto Sans" font-size="10" font-weight="400" font-style="normal" 
>
<rect x="48.2409" y="1080.27" width="1" height="5.99994"/>
</g>

<g fill="#000000" fill-opacity="1" stroke="none" transform="matrix(2.27273,0,0,2.27273,-71.002,-2446.06)"
font-family="Noto Sans" font-size="10" font-weight="400" font-style="normal" 
>
<rect x="46.2409" y="1085.27" width="2" height="1"/>
</g>

<g fill="#303030" fill-opacity="1" stroke="none" transform="matrix(0,2.27273,-2.27273,0,-71.002,-2446.06)"
font-family="Noto Sans" font-size="10" font-weight="400" font-style="normal" 
>
<rect x="1081.27" y="-50.2409" width="5" height="1"/>
</g>

<g fill="#303030" fill-opacity="1" stroke="none" transform="matrix(2.27273,0,0,2.27273,-71.002,-2446.06)"
font-family="Noto Sans" font-size="10" font-weight="400" font-style="normal" 
>
<rect x="47.2409" y="1086.27" width="3" height="1"/>
</g>

<g fill="none" stroke="#000000" stroke-opacity="1" stroke-width="1" stroke-linecap="square" stroke-linejoin="bevel" transform="matrix(1,0,0,1,0,0)"
font-family="Noto Sans" font-size="10" font-weight="400" font-style="normal" 
>
</g>
</g>
</svg>
