<?xml version="1.0" encoding="UTF-8" standalone="no"?>
<svg viewBox="0 0 50 50"
 xmlns="http://www.w3.org/2000/svg" xmlns:xlink="http://www.w3.org/1999/xlink" version="1.2" baseProfile="tiny">
<title>Qt SVG Document</title>
<desc>Generated with Qt</desc>
<defs>
</defs>
<g fill="none" stroke="black" stroke-width="1" fill-rule="evenodd" stroke-linecap="square" stroke-linejoin="bevel" >

<g fill="#000000" fill-opacity="1" stroke="none" transform="matrix(2.27273,0,0,2.27273,-166.457,-2373.34)"
font-family="Noto Sans" font-size="10" font-weight="400" font-style="normal" 
>
<rect x="77.2409" y="1051.27" width="11" height="1"/>
</g>

<g fill="#000000" fill-opacity="1" stroke="none" transform="matrix(2.27273,0,0,2.27273,-166.457,-2373.34)"
font-family="Noto Sans" font-size="10" font-weight="400" font-style="normal" 
>
<rect x="77.2409" y="1052.27" width="1" height="8.99999"/>
</g>

<g fill="#000000" fill-opacity="1" stroke="none" transform="matrix(2.27273,0,0,2.27273,-166.457,-2373.34)"
font-family="Noto Sans" font-size="10" font-weight="400" font-style="normal" 
>
<rect x="77.2409" y="1061.27" width="10" height="1"/>
</g>

<g fill="#000000" fill-opacity="1" stroke="none" transform="matrix(2.27273,0,0,2.27273,-166.457,-2373.34)"
font-family="Noto Sans" font-size="10" font-weight="400" font-style="normal" 
>
<rect x="87.2409" y="1052.27" width="1" height="10"/>
</g>

<g fill="#000000" fill-opacity="1" stroke="none" transform="matrix(2.27273,0,0,2.27273,-166.457,-2373.34)"
font-family="Noto Sans" font-size="10" font-weight="400" font-style="normal" 
>
<rect x="82.2409" y="1047.27" width="1" height="3.99997"/>
</g>

<g fill="#000000" fill-opacity="1" stroke="none" transform="matrix(2.27273,0,0,2.27273,-166.457,-2373.34)"
font-family="Noto Sans" font-size="10" font-weight="400" font-style="normal" 
>
<rect x="83.2409" y="1047.27" width="8" height="1"/>
</g>

<g fill="#000000" fill-opacity="1" stroke="none" transform="matrix(2.27273,0,0,2.27273,-166.457,-2373.34)"
font-family="Noto Sans" font-size="10" font-weight="400" font-style="normal" 
>
<rect x="90.2409" y="1048.27" width="1" height="5.99994"/>
</g>

<g fill="#000000" fill-opacity="1" stroke="none" transform="matrix(2.27273,0,0,2.27273,-166.457,-2373.34)"
font-family="Noto Sans" font-size="10" font-weight="400" font-style="normal" 
>
<rect x="88.2409" y="1053.27" width="2" height="1"/>
</g>

<g fill="none" stroke="#000000" stroke-opacity="1" stroke-width="1" stroke-linecap="square" stroke-linejoin="bevel" transform="matrix(1,0,0,1,0,0)"
font-family="Noto Sans" font-size="10" font-weight="400" font-style="normal" 
>
</g>
</g>
</svg>
